<svg width="32" height="32" viewBox="0 0 32 32" fill="none" xmlns="http://www.w3.org/2000/svg">
<path d="M14.3333 25.3332C15.1778 25.3332 15.8889 25.0443 16.4667 24.4665C17.0444 23.8887 17.3333 23.1776 17.3333 22.3332V17.3332H21.3333V14.6665H16V19.8332C15.7556 19.6554 15.4947 19.5274 15.2173 19.4492C14.94 19.3709 14.6453 19.3323 14.3333 19.3332C13.4889 19.3332 12.7778 19.6221 12.2 20.1998C11.6222 20.7776 11.3333 21.4887 11.3333 22.3332C11.3333 23.1776 11.6222 23.8887 12.2 24.4665C12.7778 25.0443 13.4889 25.3332 14.3333 25.3332ZM8 29.3332C7.26667 29.3332 6.63911 29.0723 6.11734 28.5505C5.59556 28.0287 5.33422 27.4007 5.33334 26.6665V5.33317C5.33334 4.59984 5.59467 3.97228 6.11734 3.4505C6.64 2.92873 7.26756 2.66739 8 2.6665H18.6667L26.6667 10.6665V26.6665C26.6667 27.3998 26.4058 28.0278 25.884 28.5505C25.3622 29.0732 24.7342 29.3341 24 29.3332H8ZM17.3333 11.9998H24L17.3333 5.33317V11.9998Z" fill="#FFCD29"/>
</svg>
