<svg width="40" height="38" viewBox="0 0 40 38" fill="none" xmlns="http://www.w3.org/2000/svg">
<path d="M3.63636 18.75C1.63636 18.75 0 16.875 0 14.5833V4.16667C0 1.875 1.63636 0 3.63636 0H18.1818C20.1818 0 21.8182 1.875 21.8182 4.16667V14.5833C21.8182 16.875 20.1818 18.75 18.1818 18.75H14.5455V25L9.09091 18.75H3.63636ZM36.3636 31.25C38.3636 31.25 40 29.375 40 27.0833V16.6667C40 14.375 38.3636 12.5 36.3636 12.5H25.4545V14.5833C25.4545 19.1667 22.1818 22.9167 18.1818 22.9167V27.0833C18.1818 29.375 19.8182 31.25 21.8182 31.25H25.4545V37.5L30.9091 31.25H36.3636Z" fill="white"/>
</svg>
