<svg width="50" height="50" viewBox="0 0 50 50" fill="none" xmlns="http://www.w3.org/2000/svg">
<path d="M45.3125 12.5V37.5C45.3125 38.3288 44.9833 39.1237 44.3973 39.7097C43.8112 40.2958 43.0163 40.625 42.1875 40.625H16.1133L9.84771 46.1152C9.84017 46.1234 9.83164 46.1306 9.82232 46.1367C9.26118 46.6134 8.54884 46.8751 7.81255 46.875C7.35411 46.8742 6.90141 46.7729 6.48638 46.5781C5.94655 46.3293 5.48981 45.9303 5.1708 45.4288C4.85179 44.9272 4.68402 44.3444 4.68755 43.75V12.5C4.68755 11.6712 5.01679 10.8763 5.60285 10.2903C6.1889 9.70424 6.98375 9.375 7.81255 9.375H42.1875C43.0163 9.375 43.8112 9.70424 44.3973 10.2903C44.9833 10.8763 45.3125 11.6712 45.3125 12.5Z" fill="white"/>
</svg>
