<svg width="35" height="35" viewBox="0 0 35 35" fill="none" xmlns="http://www.w3.org/2000/svg">
<path d="M19.3861 0.663676C18.8592 0.235186 18.1908 0 17.5 0C16.8092 0 16.1408 0.235186 15.6139 0.663676L1.03056 12.5312C0.707632 12.7938 0.448179 13.1207 0.270215 13.4892C0.0922516 13.8576 4.49001e-05 14.2588 0 14.6649V32.2024C0 32.9443 0.307291 33.6559 0.854272 34.1806C1.40125 34.7052 2.14312 35 2.91667 35H12.1528C12.5396 35 12.9105 34.8526 13.184 34.5903C13.4575 34.328 13.6111 33.9722 13.6111 33.6012V21.9444H21.3889V33.6012C21.3889 34.3733 22.0422 35 22.8472 35H32.0833C32.8569 35 33.5987 34.7052 34.1457 34.1806C34.6927 33.6559 35 32.9443 35 32.2024V14.6649C35 14.2588 34.9077 13.8576 34.7298 13.4892C34.5518 13.1207 34.2924 12.7938 33.9694 12.5312L19.3861 0.663676Z" fill="white"/>
</svg>
