<svg width="50" height="50" viewBox="0 0 50 50" fill="none" xmlns="http://www.w3.org/2000/svg">
<path d="M42.1875 39.0625L9.375 6.25" stroke="white" stroke-miterlimit="10" stroke-linecap="round"/>
<path d="M39.0625 23.4376V20.3565C39.0625 19.5157 38.416 18.794 37.5752 18.752C37.3639 18.7419 37.1528 18.7747 36.9546 18.8485C36.7564 18.9223 36.5752 19.0356 36.4221 19.1816C36.269 19.3275 36.1471 19.5029 36.0638 19.6974C35.9805 19.8918 35.9375 20.1011 35.9375 20.3126V23.4376C35.9379 24.2384 35.8502 25.0368 35.6758 25.8184C35.6687 25.8503 35.6697 25.8835 35.6788 25.9149C35.6878 25.9463 35.7046 25.9749 35.7275 25.9981L37.9336 28.2042C37.9568 28.2274 37.9854 28.2443 38.0168 28.2535C38.0482 28.2627 38.0815 28.2639 38.1135 28.2569C38.1455 28.2499 38.1752 28.235 38.1999 28.2135C38.2246 28.192 38.2435 28.1646 38.2549 28.1339C38.7906 26.6261 39.0638 25.0377 39.0625 23.4376ZM25 34.3751C22.102 34.3658 19.3254 33.2105 17.2763 31.1613C15.2271 29.1122 14.0718 26.3355 14.0625 23.4376V20.3565C14.0625 19.5157 13.416 18.794 12.5752 18.752C12.3639 18.7419 12.1528 18.7747 11.9546 18.8485C11.7564 18.9223 11.5752 19.0356 11.4221 19.1816C11.269 19.3275 11.1471 19.5029 11.0638 19.6974C10.9805 19.8918 10.9375 20.1011 10.9375 20.3126V23.4376C10.9375 30.6642 16.416 36.6329 23.4375 37.4132V42.1876H18.7939C17.9531 42.1876 17.2314 42.8341 17.1895 43.6749C17.1793 43.8862 17.2121 44.0973 17.2859 44.2955C17.3598 44.4937 17.4731 44.6749 17.619 44.828C17.7649 44.9811 17.9404 45.103 18.1348 45.1863C18.3292 45.2696 18.5385 45.3126 18.75 45.3126H31.2061C32.0469 45.3126 32.7686 44.6661 32.8105 43.8253C32.8207 43.614 32.7879 43.4029 32.7141 43.2047C32.6402 43.0065 32.5269 42.8253 32.381 42.6722C32.2351 42.5191 32.0596 42.3972 31.8652 42.3139C31.6708 42.2306 31.4615 42.1876 31.25 42.1876H26.5625V37.4132C28.341 37.2152 30.0649 36.6775 31.6406 35.8292C31.6941 35.8001 31.74 35.759 31.7747 35.709C31.8095 35.6591 31.8321 35.6017 31.8407 35.5414C31.8493 35.4812 31.8438 35.4198 31.8245 35.3621C31.8052 35.3044 31.7726 35.252 31.7295 35.2091L29.9326 33.4132C29.8897 33.3705 29.8347 33.3422 29.7751 33.332C29.7155 33.3219 29.6542 33.3305 29.5996 33.3565C28.1596 34.0291 26.5893 34.3769 25 34.3751ZM25.1113 4.68759C23.7847 4.66324 22.474 4.9786 21.3036 5.60368C20.1333 6.22876 19.1423 7.14279 18.4248 8.25888C18.3764 8.33402 18.3552 8.42348 18.3648 8.51234C18.3744 8.6012 18.4142 8.68409 18.4775 8.74716L32.4795 22.754C32.5069 22.7812 32.5417 22.7997 32.5796 22.8071C32.6174 22.8146 32.6566 22.8106 32.6923 22.7958C32.7279 22.7809 32.7583 22.7559 32.7797 22.7238C32.8011 22.6917 32.8125 22.6539 32.8125 22.6153V12.589C32.8125 8.30087 29.3945 4.74618 25.1113 4.68759Z" fill="white"/>
<path d="M17.5205 20.996C17.4931 20.9688 17.4583 20.9503 17.4204 20.9429C17.3826 20.9354 17.3434 20.9394 17.3077 20.9542C17.2721 20.9691 17.2417 20.9941 17.2203 21.0262C17.1989 21.0583 17.1875 21.0961 17.1875 21.1347V23.3398C17.189 25.4213 18.012 27.4182 19.4775 28.8964C20.4387 29.8958 21.6527 30.616 22.9906 30.9803C24.3284 31.3447 25.74 31.3397 27.0752 30.9657C27.1081 30.9564 27.138 30.9387 27.1619 30.9142C27.1858 30.8898 27.2028 30.8594 27.2113 30.8263C27.2198 30.7932 27.2195 30.7584 27.2103 30.7255C27.2012 30.6925 27.1835 30.6626 27.1592 30.6386L17.5205 20.996Z" fill="white"/>
</svg>
