<svg width="50" height="50" viewBox="0 0 50 50" fill="none" xmlns="http://www.w3.org/2000/svg">
<path d="M18.75 43.75H31.25M37.5 20.3125V23.4375C37.5 30.3125 31.875 35.9375 25 35.9375M25 35.9375C18.125 35.9375 12.5 30.3125 12.5 23.4375V20.3125M25 35.9375V43.75" stroke="white" stroke-width="2.5" stroke-linecap="round" stroke-linejoin="round"/>
<path d="M25.0001 31.2501C23.9688 31.2476 22.9486 31.0381 22 30.6338C21.0513 30.2295 20.1935 29.6387 19.4776 28.8965C18.0119 27.4184 17.189 25.4215 17.1876 23.3399V12.5001C17.1836 11.473 17.3829 10.4553 17.7741 9.50562C18.1653 8.55595 18.7406 7.69312 19.4669 6.96686C20.1931 6.24061 21.056 5.66529 22.0056 5.2741C22.9553 4.8829 23.973 4.68356 25.0001 4.68756C29.3809 4.68756 32.8126 8.1192 32.8126 12.5001V23.3399C32.8126 27.7012 29.3077 31.2501 25.0001 31.2501Z" fill="white"/>
</svg>
