<svg width="38" height="38" viewBox="0 0 38 38" fill="none" xmlns="http://www.w3.org/2000/svg">
<path d="M2.08333 25C2.63587 25 3.16577 25.2195 3.55647 25.6102C3.94717 26.0009 4.16667 26.5308 4.16667 27.0833V33.3333H10.4167C10.9692 33.3333 11.4991 33.5528 11.8898 33.9435C12.2805 34.3342 12.5 34.8641 12.5 35.4167C12.5 35.9692 12.2805 36.4991 11.8898 36.8898C11.4991 37.2805 10.9692 37.5 10.4167 37.5H4.16667C3.0616 37.5 2.00179 37.061 1.22039 36.2796C0.438987 35.4982 2.08892e-07 34.4384 2.08892e-07 33.3333V27.0833C2.08892e-07 26.5308 0.219494 26.0009 0.610194 25.6102C1.0009 25.2195 1.5308 25 2.08333 25ZM35.4167 25C35.9269 25.0001 36.4194 25.1874 36.8008 25.5265C37.1821 25.8656 37.4257 26.3328 37.4854 26.8396L37.5 27.0833V33.3333C37.5003 34.3845 37.1033 35.397 36.3885 36.1678C35.6738 36.9386 34.6941 37.4107 33.6458 37.4896L33.3333 37.5H27.0833C26.5523 37.4994 26.0416 37.2961 25.6555 36.9316C25.2694 36.567 25.037 36.0688 25.0059 35.5388C24.9748 35.0087 25.1472 34.4867 25.4881 34.0795C25.8289 33.6723 26.3123 33.4106 26.8396 33.3479L27.0833 33.3333H33.3333V27.0833C33.3333 26.5308 33.5528 26.0009 33.9435 25.6102C34.3342 25.2195 34.8641 25 35.4167 25ZM33.3333 2.08892e-07C34.3845 -0.000332457 35.397 0.39668 36.1678 1.11145C36.9386 1.82622 37.4107 2.80593 37.4896 3.85417L37.5 4.16667V10.4167C37.4994 10.9477 37.2961 11.4584 36.9316 11.8445C36.567 12.2306 36.0688 12.463 35.5388 12.4941C35.0087 12.5252 34.4867 12.3528 34.0795 12.0119C33.6723 11.6711 33.4106 11.1877 33.3479 10.6604L33.3333 10.4167V4.16667H27.0833C26.5523 4.16608 26.0416 3.96275 25.6555 3.59823C25.2694 3.23371 25.037 2.73551 25.0059 2.20543C24.9748 1.67534 25.1472 1.15338 25.4881 0.746182C25.8289 0.338988 26.3123 0.0772994 26.8396 0.0145835L27.0833 2.08892e-07H33.3333ZM10.4167 2.08892e-07C10.9477 0.000589183 11.4584 0.203915 11.8445 0.568434C12.2306 0.932953 12.463 1.43115 12.4941 1.96124C12.5252 2.49133 12.3528 3.01329 12.0119 3.42048C11.6711 3.82768 11.1877 4.08937 10.6604 4.15208L10.4167 4.16667H4.16667V10.4167C4.16608 10.9477 3.96275 11.4584 3.59823 11.8445C3.23371 12.2306 2.73551 12.463 2.20543 12.4941C1.67534 12.5252 1.15338 12.3528 0.746182 12.0119C0.338988 11.6711 0.0772994 11.1877 0.0145835 10.6604L2.08892e-07 10.4167V4.16667C-0.000332457 3.11547 0.39668 2.10299 1.11145 1.33219C1.82622 0.561397 2.80593 0.0892571 3.85417 0.0104171L4.16667 2.08892e-07H10.4167Z" fill="white"/>
</svg>
