<svg width="90" height="90" viewBox="0 0 90 90" fill="none" xmlns="http://www.w3.org/2000/svg">
<circle cx="45" cy="45" r="45" fill="#CD071E"/>
<path d="M62.5561 36.6304C65.2339 37.1878 67.6315 38.6165 69.3468 40.6768C71.062 42.7371 71.9905 45.3037 71.9765 47.9461L72 49.873C71.9837 51.2185 71.4221 52.5044 70.4352 53.4556C69.4484 54.4067 68.1148 54.9475 66.7199 54.9622H58.2787C56.8873 54.9504 55.5564 54.412 54.5725 53.463C53.5886 52.5139 53.0304 51.2302 53.0181 49.8881C53.0234 49.7118 52.9918 49.5363 52.9251 49.3721C52.8584 49.2079 52.7581 49.0584 52.6301 48.9324C52.5021 48.8065 52.3491 48.7068 52.1802 48.6392C52.0113 48.5717 51.83 48.5377 51.6472 48.5393H38.3802C38.011 48.5452 37.6586 48.6898 37.3982 48.9424C37.1378 49.195 36.9898 49.5356 36.9858 49.8919C36.9765 51.2345 36.4192 52.5196 35.4345 53.4686C34.4499 54.4177 33.1172 54.9543 31.7252 54.9622L23.2841 55C21.8897 54.9863 20.5563 54.447 19.5689 53.4974C18.5814 52.5477 18.0183 51.2632 18 49.9183L18.0235 47.9914C18.0095 45.3491 18.938 42.7825 20.6532 40.7221C22.3685 38.6618 24.7661 37.2331 27.4439 36.6757C38.9835 34.3975 51.0009 34.4957 62.5561 36.6304Z" fill="white"/>
</svg>
