<svg width="32" height="32" viewBox="0 0 32 32" fill="none" xmlns="http://www.w3.org/2000/svg">
<path d="M12 18.6665H25.3333L20.7333 12.6665L17.6667 16.6665L15.6 13.9998L12 18.6665ZM10.6667 23.9998C9.93333 23.9998 9.30578 23.7389 8.784 23.2172C8.26222 22.6954 8.00089 22.0674 8 21.3332V5.33317C8 4.59984 8.26133 3.97228 8.784 3.4505C9.30666 2.92873 9.93422 2.66739 10.6667 2.6665H26.6667C27.4 2.6665 28.028 2.92784 28.5507 3.4505C29.0733 3.97317 29.3342 4.60073 29.3333 5.33317V21.3332C29.3333 22.0665 29.0724 22.6945 28.5507 23.2172C28.0289 23.7398 27.4009 24.0007 26.6667 23.9998H10.6667ZM5.33333 29.3332C4.6 29.3332 3.97244 29.0723 3.45066 28.5505C2.92889 28.0287 2.66755 27.4007 2.66666 26.6665V7.99984H5.33333V26.6665H24V29.3332H5.33333Z" fill="#14AE5C"/>
</svg>
