<svg width="35" height="35" viewBox="0 0 35 35" fill="none" xmlns="http://www.w3.org/2000/svg">
<path fill-rule="evenodd" clip-rule="evenodd" d="M13.5196 0H21.4794V0.713136C22.0943 7.38397 24.128 8.59163 30.3326 5.76532L31.0191 5.37864L34.999 12.1097L34.611 12.3283C28.7367 16.3118 28.676 18.6523 34.5453 22.6105L35 22.867L34.9801 22.9L31.0201 29.598L30.262 29.1706C23.9389 26.3472 22.0117 27.7365 21.5062 35L21.4794 34.6823V34.9767H13.5196V33.8438C12.853 27.4062 10.7138 26.421 4.41169 29.3552L3.97987 29.598L0 22.867L1.02979 22.286C6.24243 18.6115 6.24044 16.3157 0.92731 12.6334L0 12.1097L3.97987 5.37864L4.20175 5.50397C10.6392 8.51294 12.858 7.6084 13.5196 1.16783V0ZM22.4743 17.4883C22.4743 18.7767 21.9502 20.0123 21.0172 20.9234C20.0843 21.8344 18.8189 22.3462 17.4995 22.3462C16.1801 22.3462 14.9147 21.8344 13.9818 20.9234C13.0488 20.0123 12.5247 18.7767 12.5247 17.4883C12.5247 16.2 13.0488 14.9643 13.9818 14.0533C14.9147 13.1423 16.1801 12.6305 17.4995 12.6305C18.8189 12.6305 20.0843 13.1423 21.0172 14.0533C21.9502 14.9643 22.4743 16.2 22.4743 17.4883ZM25.4592 17.4883C25.4592 19.5498 24.6206 21.5268 23.1279 22.9844C21.6351 24.442 19.6106 25.2609 17.4995 25.2609C15.3884 25.2609 13.3639 24.442 11.8711 22.9844C10.3784 21.5268 9.53975 19.5498 9.53975 17.4883C9.53975 15.4269 10.3784 13.4499 11.8711 11.9923C13.3639 10.5346 15.3884 9.71575 17.4995 9.71575C19.6106 9.71575 21.6351 10.5346 23.1279 11.9923C24.6206 13.4499 25.4592 15.4269 25.4592 17.4883ZM27.4492 17.4883C27.4492 22.8543 22.9947 27.2041 17.4995 27.2041C12.0043 27.2041 7.54982 22.8543 7.54982 17.4883C7.54982 12.1223 12.0043 7.7726 17.4995 7.7726C22.9947 7.7726 27.4492 12.1223 27.4492 17.4883Z" fill="white"/>
</svg>
