<svg width="50" height="50" viewBox="0 0 50 50" fill="none" xmlns="http://www.w3.org/2000/svg">
<g clip-path="url(#clip0_49_37)">
<path d="M27.625 6.87507C27.951 6.64182 28.3326 6.49819 28.7315 6.45852C29.1304 6.41884 29.5328 6.48452 29.8984 6.64898C30.264 6.81344 30.5801 7.07094 30.8151 7.39575C31.05 7.72057 31.1957 8.10135 31.2375 8.50007L31.25 8.73757V41.2626C31.2501 41.6635 31.1451 42.0574 30.9453 42.405C30.7456 42.7526 30.4582 43.0418 30.1117 43.2436C29.7653 43.4454 29.372 43.5527 28.9711 43.555C28.5702 43.5572 28.1757 43.4542 27.827 43.2563L27.627 43.1272L13.9166 33.3334H8.33329C7.28209 33.3337 6.26961 32.9367 5.49882 32.2219C4.72802 31.5072 4.25588 30.5275 4.17704 29.4792L4.16663 29.1667V20.8334C4.16682 19.7826 4.56407 18.7706 5.27879 18.0002C5.99351 17.2299 6.97291 16.758 8.02079 16.6792L8.33329 16.6667H13.9166L27.625 6.87507ZM36.6375 19.1084L39.5833 22.0542L42.5291 19.1084C42.7213 18.9094 42.9512 18.7507 43.2054 18.6415C43.4595 18.5323 43.7329 18.4749 44.0095 18.4725C44.2862 18.4701 44.5605 18.5228 44.8165 18.6275C45.0726 18.7323 45.3052 18.887 45.5008 19.0826C45.6964 19.2782 45.8511 19.5108 45.9558 19.7668C46.0606 20.0229 46.1133 20.2972 46.1109 20.5738C46.1085 20.8504 46.051 21.1238 45.9418 21.378C45.8327 21.6322 45.6739 21.8621 45.475 22.0542L42.5291 25.0001L45.475 27.9459C45.8659 28.3365 46.0856 28.8665 46.0858 29.4191C46.086 29.9718 45.8666 30.5019 45.476 30.8928C45.0854 31.2837 44.5554 31.5034 44.0028 31.5036C43.4501 31.5038 42.92 31.2845 42.5291 30.8938L39.5833 27.9459L36.6375 30.8938C36.2465 31.2845 35.7165 31.5038 35.1638 31.5036C34.6112 31.5034 34.0812 31.2837 33.6906 30.8928C33.2999 30.5019 33.0806 29.9718 33.0808 29.4191C33.081 28.8665 33.3007 28.3365 33.6916 27.9459L36.6375 25.0001L33.6916 22.0542C33.4927 21.8621 33.3339 21.6322 33.2248 21.378C33.1156 21.1238 33.0581 20.8504 33.0557 20.5738C33.0533 20.2972 33.106 20.0229 33.2108 19.7668C33.3155 19.5108 33.4702 19.2782 33.6658 19.0826C33.8614 18.887 34.094 18.7323 34.3501 18.6275C34.6061 18.5228 34.8804 18.4701 35.157 18.4725C35.4337 18.4749 35.707 18.5323 35.9612 18.6415C36.2154 18.7507 36.4453 18.9094 36.6375 19.1084Z" fill="white"/>
</g>
<defs>
<clipPath id="clip0_49_37">
<rect width="50" height="50" fill="white"/>
</clipPath>
</defs>
</svg>
