<svg width="50" height="50" viewBox="0 0 50 50" fill="none" xmlns="http://www.w3.org/2000/svg">
<path d="M27.6251 6.87507C27.9511 6.64182 28.3327 6.49819 28.7316 6.45852C29.1305 6.41884 29.5329 6.48452 29.8985 6.64898C30.2641 6.81344 30.5802 7.07094 30.8152 7.39575C31.0501 7.72057 31.1958 8.10135 31.2376 8.50007L31.2501 8.73757V41.2626C31.2502 41.6635 31.1452 42.0574 30.9454 42.405C30.7457 42.7526 30.4583 43.0418 30.1118 43.2436C29.7654 43.4453 29.3721 43.5527 28.9712 43.555C28.5703 43.5572 28.1758 43.4542 27.8272 43.2563L27.6272 43.1272L13.9167 33.3334H8.33341C7.28221 33.3337 6.26973 32.9367 5.49894 32.2219C4.72815 31.5072 4.25601 30.5275 4.17717 29.4792L4.16675 29.1667V20.8334C4.16642 19.7822 4.56343 18.7697 5.2782 17.9989C5.99297 17.2281 6.97267 16.756 8.02091 16.6771L8.33341 16.6667H13.9167L27.6251 6.87507ZM40.973 14.1313C42.5021 15.4991 43.7254 17.1742 44.5629 19.0471C45.4004 20.92 45.8334 22.9485 45.8334 25.0001C45.8334 27.0517 45.4004 29.0802 44.5629 30.953C43.7254 32.8259 42.5021 34.501 40.973 35.8688C40.7697 36.0543 40.5316 36.1976 40.2726 36.2906C40.0135 36.3835 39.7386 36.4242 39.4638 36.4103C39.1889 36.3964 38.9195 36.3282 38.6712 36.2096C38.4228 36.0909 38.2004 35.9243 38.0169 35.7193C37.8333 35.5142 37.6922 35.2748 37.6016 35.0149C37.5111 34.755 37.473 34.4798 37.4894 34.2051C37.5059 33.9303 37.5766 33.6616 37.6975 33.4144C37.8184 33.1671 37.9871 32.9463 38.1938 32.7647C39.2864 31.7876 40.1605 30.591 40.7589 29.253C41.3574 27.915 41.6667 26.4658 41.6667 25.0001C41.6667 21.9167 40.3292 19.1459 38.1938 17.2355C37.9871 17.0538 37.8184 16.833 37.6975 16.5858C37.5766 16.3385 37.5059 16.0698 37.4894 15.7951C37.473 15.5203 37.5111 15.2451 37.6016 14.9852C37.6922 14.7253 37.8333 14.4859 38.0169 14.2809C38.2004 14.0758 38.4228 13.9092 38.6712 13.7906C38.9195 13.672 39.1889 13.6037 39.4638 13.5898C39.7386 13.5759 40.0135 13.6166 40.2726 13.7096C40.5316 13.8025 40.7697 13.9458 40.973 14.1313ZM36.8063 18.7897C37.6797 19.571 38.3785 20.5278 38.8571 21.5976C39.3356 22.6674 39.5831 23.8261 39.5834 24.998C39.5837 26.1706 39.3364 27.3301 38.8579 28.4006C38.3794 29.4712 37.6803 30.4286 36.8063 31.2105C36.4113 31.5614 35.8976 31.749 35.3694 31.7354C34.8412 31.7219 34.3378 31.5081 33.9613 31.1374C33.5848 30.7667 33.3631 30.2667 33.3413 29.7388C33.3195 29.2108 33.4992 28.6943 33.8438 28.2938L34.0272 28.1063C34.8813 27.3397 35.4167 26.2334 35.4167 25.0001C35.4171 23.9336 35.0085 22.9076 34.2751 22.1334L34.0272 21.8938C33.8204 21.7122 33.6517 21.4913 33.5308 21.2441C33.4099 20.9969 33.3392 20.7281 33.3227 20.4534C33.3063 20.1787 33.3444 19.9034 33.435 19.6435C33.5255 19.3836 33.6666 19.1442 33.8502 18.9392C34.0338 18.7342 34.2562 18.5675 34.5045 18.4489C34.7528 18.3303 35.0222 18.2621 35.2971 18.2482C35.5719 18.2343 35.8468 18.275 36.1059 18.3679C36.3649 18.4608 36.603 18.6042 36.8063 18.7897Z" fill="white"/>
</svg>
